# Blender 3.3.1
# www.blender.org
mtllib gun.mtl
o pistol
v 0.004500 0.018000 0.022500
v 0.004500 0.010200 0.022500
v 0.004500 0.010200 -0.018900
v 0.004500 0.018000 -0.018900
v -0.004500 0.018000 0.022500
v -0.004500 0.010200 0.022500
v -0.003900 0.010200 0.022500
v -0.003900 0.017400 0.022500
v 0.003900 0.017400 0.022500
v 0.003900 0.010200 0.022500
v -0.004500 0.018000 -0.007500
v -0.004500 0.018000 -0.018900
v -0.004500 0.010200 -0.018900
v -0.004500 0.018000 0.000300
v -0.004500 0.015000 0.000300
v -0.004500 0.015000 -0.007500
v 0.001500 0.018000 -0.007500
v 0.001500 0.018000 0.000300
v 0.001500 0.017400 -0.007500
v -0.003900 0.015000 -0.007500
v -0.003900 0.017400 -0.007500
v 0.001500 0.017400 0.000300
v 0.003900 0.017400 -0.018900
v 0.003900 0.017400 0.021900
v -0.003900 0.017400 0.021900
v -0.003900 0.017400 0.000300
v -0.003900 0.017400 -0.018900
v 0.003900 0.010200 -0.018900
v 0.003900 0.010200 0.021900
v -0.003900 0.010200 -0.018900
v -0.003900 0.010200 0.021900
v -0.003900 0.015000 0.000300
v -0.003900 -0.015600 -0.022500
v 0.003900 -0.015600 -0.022500
v 0.003900 -0.015600 -0.010500
v -0.003900 -0.015600 -0.010500
v 0.004500 -0.015600 -0.023100
v -0.004500 -0.015600 -0.023100
v -0.004500 -0.015600 -0.009900
v -0.004500 -0.018000 -0.023100
v -0.004500 -0.018000 -0.009900
v 0.004500 -0.018000 -0.023100
v 0.004500 -0.015600 -0.009900
v 0.004500 -0.018000 -0.009900
v -0.003900 0.007200 0.021900
v -0.003900 0.017400 0.021900
v -0.003900 0.017400 -0.019500
v -0.003900 0.007200 -0.019500
v -0.003900 0.007200 -0.016500
v -0.003900 0.007200 -0.004500
v -0.002898 0.013023 0.021900
v -0.002598 0.012300 0.021900
v -0.002121 0.011679 0.021900
v -0.001500 0.011202 0.021900
v -0.000776 0.010902 0.021900
v -0.000000 0.010800 0.021900
v 0.000776 0.010902 0.021900
v 0.001500 0.011202 0.021900
v 0.003900 0.007200 0.021900
v 0.002121 0.011679 0.021900
v 0.002598 0.012300 0.021900
v 0.002898 0.013023 0.021900
v 0.003900 0.017400 0.021900
v 0.003900 0.017400 -0.019500
v 0.003900 0.007200 -0.004500
v 0.003900 0.007200 -0.016500
v 0.003900 0.007200 -0.019500
v -0.000000 0.016800 0.021900
v -0.000776 0.016698 0.021900
v -0.001500 0.016398 0.021900
v -0.002121 0.015921 0.021900
v -0.002598 0.015300 0.021900
v -0.002898 0.014576 0.021900
v -0.003000 0.013800 0.021900
v -0.003000 0.013800 0.023100
v -0.002898 0.013023 0.023100
v -0.002898 0.014576 0.023100
v -0.002598 0.015300 0.023100
v -0.002121 0.015921 0.023100
v -0.001500 0.016398 0.023100
v -0.000776 0.016698 0.023100
v -0.000000 0.016800 0.023100
v 0.000776 0.016698 0.023100
v 0.000776 0.016698 0.021900
v 0.001500 0.016398 0.023100
v 0.001500 0.016398 0.021900
v 0.002121 0.015921 0.023100
v 0.002121 0.015921 0.021900
v 0.002598 0.015300 0.023100
v 0.002598 0.015300 0.021900
v 0.002898 0.014576 0.023100
v 0.002898 0.014576 0.021900
v 0.003000 0.013800 0.023100
v 0.003000 0.013800 0.021900
v 0.002898 0.013023 0.023100
v 0.002598 0.012300 0.023100
v 0.002121 0.011679 0.023100
v 0.001500 0.011202 0.023100
v 0.000776 0.010902 0.023100
v -0.000000 0.010800 0.023100
v -0.000776 0.010902 0.023100
v -0.001500 0.011202 0.023100
v -0.002121 0.011679 0.023100
v -0.002598 0.012300 0.023100
v -0.002067 0.012606 0.023100
v -0.001688 0.012112 0.023100
v -0.001194 0.011733 0.023100
v -0.000618 0.011494 0.023100
v -0.000000 0.011413 0.023100
v 0.000618 0.011494 0.023100
v 0.001194 0.011733 0.023100
v 0.001688 0.012112 0.023100
v 0.002067 0.012606 0.023100
v 0.002306 0.013182 0.023100
v 0.002387 0.013800 0.023100
v 0.002306 0.014418 0.023100
v 0.002067 0.014994 0.023100
v 0.001688 0.015488 0.023100
v 0.001194 0.015867 0.023100
v 0.000618 0.016106 0.023100
v -0.000000 0.016187 0.023100
v -0.000618 0.016106 0.023100
v -0.001194 0.015867 0.023100
v -0.001688 0.015488 0.023100
v -0.002067 0.014994 0.023100
v -0.002306 0.014418 0.023100
v -0.002387 0.013800 0.023100
v -0.002306 0.013182 0.023100
v -0.002067 0.012606 0.021900
v -0.002306 0.013182 0.021900
v -0.002067 0.014994 0.021900
v -0.002306 0.014418 0.021900
v -0.002387 0.013800 0.021900
v -0.001688 0.012112 0.021900
v -0.001194 0.011733 0.021900
v -0.000618 0.011494 0.021900
v -0.000000 0.011413 0.021900
v 0.000618 0.011494 0.021900
v 0.001194 0.011733 0.021900
v 0.001688 0.012112 0.021900
v 0.002067 0.012606 0.021900
v 0.002306 0.013182 0.021900
v 0.002387 0.013800 0.021900
v 0.002306 0.014418 0.021900
v 0.002067 0.014994 0.021900
v 0.001688 0.015488 0.021900
v 0.001194 0.015867 0.021900
v 0.000618 0.016106 0.021900
v -0.000000 0.016187 0.021900
v -0.000618 0.016106 0.021900
v -0.001194 0.015867 0.021900
v -0.001688 0.015488 0.021900
v 0.001500 0.016200 -0.019500
v 0.001500 0.012000 -0.019500
v -0.001500 0.012000 -0.019500
v -0.001500 0.016200 -0.019500
v -0.001500 0.016200 -0.021300
v 0.001500 0.016200 -0.021300
v -0.001500 0.013800 -0.021300
v 0.001500 0.013800 -0.021300
v 0.002400 0.007200 0.003358
v -0.002400 0.007200 0.003358
v -0.002400 0.007200 0.001558
v 0.002400 0.007200 0.001558
v 0.002400 -0.000000 0.003358
v 0.002400 0.000000 -0.006395
v 0.002400 0.001800 -0.005921
v 0.002400 0.001800 0.001558
v -0.002400 -0.000000 0.003358
v -0.002400 0.001800 0.001558
v -0.002400 0.001800 -0.005921
v -0.002400 0.000000 -0.006395
vn 1.0000 -0.0000 -0.0000
vn -0.0000 -0.0000 1.0000
vn -1.0000 -0.0000 -0.0000
vn -0.0000 1.0000 -0.0000
vn -0.0000 -1.0000 -0.0000
vn -0.0000 -0.0000 -1.0000
vn -0.9659 -0.2588 -0.0000
vn -0.9659 0.2588 -0.0000
vn -0.8660 0.5000 -0.0000
vn -0.7071 0.7071 -0.0000
vn -0.5000 0.8660 -0.0000
vn -0.2588 0.9659 -0.0000
vn 0.2588 0.9659 -0.0000
vn 0.5000 0.8660 -0.0000
vn 0.7071 0.7071 -0.0000
vn 0.8660 0.5000 -0.0000
vn 0.9659 0.2588 -0.0000
vn 0.9659 -0.2588 -0.0000
vn 0.8660 -0.5000 -0.0000
vn 0.7071 -0.7071 -0.0000
vn 0.5000 -0.8660 -0.0000
vn 0.2588 -0.9659 -0.0000
vn -0.2588 -0.9659 -0.0000
vn -0.5000 -0.8660 -0.0000
vn -0.7071 -0.7071 -0.0000
vn -0.8660 -0.5000 -0.0000
vn -0.0000 -0.7071 -0.7071
vn -0.0000 0.2545 -0.9671
vn -0.0000 -0.2545 0.9671
vt 0.000000 22.047199
vt 5.905510 22.047199
vt 5.905510 0.000000
vt 0.000000 16.929100
vt 5.905510 16.929100
vt -5.905510 0.000000
vt 27.165400 16.929100
vt -5.905510 16.929100
vt -5.905510 27.165400
vt 27.165400 22.047199
vt 5.905510 27.165400
vt -5.905510 22.047199
vt 0.000000 22.047199
vt 0.000000 0.000000
vt 0.000000 16.929100
vt 0.000000 0.000000
vt 0.393701 16.929100
vt 0.000000 16.929100
vt -0.393701 0.000000
vt 0.393701 21.653500
vt -0.393701 0.000000
vt 0.000000 21.653500
vt 5.511810 21.653500
vt 0.000000 21.653500
vt -5.511810 0.000000
vt 5.511810 16.929100
vt -5.511810 0.000000
vt 0.000000 16.929100
vt -19.684999 22.047199
vt 0.000000 19.684999
vt 0.000000 22.047199
vt -27.165400 22.047199
vt 0.000000 27.165400
vt 0.000000 22.047199
vt -27.165400 16.929100
vt 0.000000 16.929100
vt 0.000000 27.165400
vt -14.566900 22.047199
vt 0.000000 14.566900
vt 0.000000 22.047199
vt -14.566900 20.078699
vt 0.000000 14.566900
vt 0.000000 20.078699
vt -19.684999 20.078699
vt 0.000000 20.078699
vt 0.000000 19.684999
vt 3.937010 19.684999
vt 3.937010 22.047199
vt -19.684999 22.047199
vt 3.937010 14.566900
vt -14.566900 22.047199
vt -3.937010 22.047199
vt 3.937010 21.653500
vt -19.684999 21.653500
vt -3.937010 19.684999
vt 0.393701 20.078699
vt 19.684999 20.078699
vt 0.393701 19.684999
vt 0.393701 21.653500
vt -0.393701 19.684999
vt 19.684999 21.653500
vt -14.566900 21.653500
vt -3.937010 14.566900
vt -3.937010 21.653500
vt -5.511810 27.165400
vt -27.165400 21.653500
vt -5.511810 21.653500
vt -0.393701 21.653500
vt -5.511810 0.393701
vt -0.393701 0.393701
vt 0.393701 21.653500
vt -0.393701 14.566900
vt 14.566900 21.653500
vt -0.393701 21.653500
vt -0.393701 27.165400
vt -0.393701 21.653500
vt 27.165400 21.653500
vt -27.165400 16.929100
vt -5.511810 16.929100
vt -5.511810 27.165400
vt -5.511810 0.393701
vt -0.393701 16.929100
vt -0.393701 16.929100
vt -0.393701 27.165400
vt 27.165400 16.929100
vt -0.393701 0.393701
vt 0.393701 16.929100
vt 14.566900 20.078699
vt 0.393701 14.566900
vt -0.393701 20.078699
vt -0.393701 29.527599
vt 0.393701 29.527599
vt -29.527599 -0.000000
vt -0.393701 -7.514570
vt -5.511810 29.527599
vt 29.527599 0.000000
vt -5.511810 -7.514570
vt 5.511810 29.527599
vt -5.511810 21.653500
vt 21.653500 0.000000
vt 5.511810 -5.510680
vt 5.511810 21.653500
vt -0.393701 21.653500
vt 0.393701 21.653500
vt -21.653500 -0.000000
vt 0.393701 -5.510680
vt -5.905510 0.000000
vt 29.921301 0.000000
vt 5.905510 29.921301
vt 0.000000 29.921301
vt -29.921301 -0.000000
vt 0.000000 0.000000
vt -21.259800 -0.000000
vt 0.000000 21.259800
vt 0.000000 0.000000
vt -29.921301 -1.574800
vt 0.000000 -1.574800
vt 0.000000 29.921301
vt -21.259800 -1.574800
vt 0.000000 -1.574800
vt -0.000000 21.259800
vt -5.905510 -1.574800
vt 29.921301 -1.574800
vt -5.905510 29.921301
vt 21.259800 0.000000
vt 5.905510 21.259800
vt 5.905510 0.000000
vt 21.259800 -1.574800
vt 5.905510 -1.574800
vt -5.905510 21.259800
vt -0.393701 14.960600
vt 0.393701 14.960600
vt -0.393701 0.393701
vt -0.393701 21.653500
vt 0.393701 0.393701
vt 0.393701 21.653500
vt -27.559099 21.653500
vt 0.393701 27.559099
vt -0.393701 21.653500
vt -27.559099 14.960600
vt -0.393701 14.960600
vt -0.393701 27.559099
vt -25.590599 14.960600
vt -0.393701 25.590599
vt -0.393701 7.955420
vt -17.716499 14.960600
vt -0.393701 17.716499
vt 0.393701 9.959300
vt 1.051330 18.781900
vt -0.393701 18.483900
vt -0.393701 16.949800
vt 1.247980 18.307100
vt -0.393701 13.764300
vt -0.393701 16.436001
vt 1.560810 17.899401
vt -0.393701 9.658190
vt -0.393701 13.250400
vt 1.968500 17.586599
vt -0.393701 4.911430
vt -0.393701 9.144300
vt 2.443270 17.389900
vt -0.393701 -0.152528
vt -0.393701 4.397540
vt 2.952760 17.322800
vt 0.393701 5.188580
vt -0.393701 -0.666411
vt 3.462240 17.389900
vt 0.393701 9.853530
vt 0.393701 5.702460
vt 3.937010 17.586599
vt 0.393701 13.829500
vt 0.393701 10.367400
vt 5.511810 14.960600
vt 0.393701 14.960600
vt -5.511810 0.393701
vt 4.344700 17.899401
vt 0.393701 16.845400
vt 0.393701 14.343300
vt 4.657530 18.307100
vt 0.393701 18.695900
vt 0.393701 17.359301
vt 0.393701 19.254801
vt 0.393701 19.209801
vt 4.854180 18.781900
vt 0.393701 21.653500
vt 5.511810 0.393701
vt 5.511810 21.653500
vt 27.559099 21.653500
vt 5.511810 27.559099
vt -5.511810 21.653500
vt 17.716499 14.960600
vt -5.511810 17.716499
vt 5.511810 9.959300
vt 25.590599 14.960600
vt -5.511810 25.590599
vt -5.511810 7.955420
vt 27.559099 14.960600
vt -5.511810 14.960600
vt -5.511810 27.559099
vt -0.393701 5.702460
vt 0.393701 -0.152528
vt 2.952760 21.259800
vt 2.443270 21.192801
vt -0.393701 10.367400
vt -0.393701 5.188580
vt 1.968500 20.996099
vt -0.393701 14.343300
vt -0.393701 9.853530
vt 1.560810 20.683300
vt -0.393701 17.359301
vt -0.393701 13.829500
vt 1.247980 20.275600
vt -0.393701 19.209801
vt -0.393701 16.845400
vt 1.051330 19.800800
vt -0.393701 19.768700
vt -0.393701 18.695900
vt 0.984252 19.291300
vt -0.393701 18.997801
vt -0.393701 19.254801
vt 0.393701 18.997801
vt 0.393701 19.254801
vt 0.984252 19.291300
vt 0.393701 18.483900
vt 0.393701 16.949800
vt 1.051330 18.781900
vt 0.393701 19.768700
vt 0.393701 18.695900
vt 1.051330 19.800800
vt 0.393701 19.209801
vt 0.393701 16.845400
vt 1.247980 20.275600
vt 0.393701 17.359301
vt 0.393701 13.829500
vt 1.560810 20.683300
vt 0.393701 14.343300
vt 0.393701 9.853530
vt 1.968500 20.996099
vt 0.393701 10.367400
vt 0.393701 5.188580
vt 2.443270 21.192801
vt 0.393701 5.702460
vt -0.393701 -0.152528
vt 2.952760 21.259800
vt -0.393701 -0.666411
vt -0.393701 4.911430
vt 3.462240 21.192801
vt 0.393701 -0.666411
vt 0.393701 4.911430
vt 3.462240 21.192801
vt -0.393701 4.397540
vt -0.393701 9.658190
vt 3.937010 20.996099
vt 0.393701 4.397540
vt 0.393701 9.658190
vt 3.937010 20.996099
vt -0.393701 9.144300
vt -0.393701 13.764300
vt 4.344700 20.683300
vt 0.393701 9.144300
vt 0.393701 13.764300
vt 4.344700 20.683300
vt -0.393701 13.250400
vt -0.393701 16.949800
vt 4.657530 20.275600
vt 0.393701 13.250400
vt 0.393701 16.949800
vt 4.657530 20.275600
vt -0.393701 16.436001
vt -0.393701 18.997801
vt 4.854180 19.800800
vt 0.393701 16.436001
vt 0.393701 18.997801
vt 4.854180 19.800800
vt -0.393701 18.483900
vt -0.393701 19.768700
vt 4.921260 19.291300
vt 0.393701 18.483900
vt 0.393701 19.768700
vt 4.921260 19.291300
vt -0.393701 19.254801
vt -0.393701 19.209801
vt 4.854180 18.781900
vt -0.393701 18.695900
vt -0.393701 17.359301
vt 4.657530 18.307100
vt -0.393701 16.845400
vt -0.393701 14.343300
vt 4.344700 17.899401
vt -0.393701 13.829500
vt -0.393701 10.367400
vt 3.937010 17.586599
vt -0.393701 9.853530
vt -0.393701 5.702460
vt 3.462240 17.389900
vt -0.393701 5.188580
vt 0.393701 -0.666411
vt 2.952760 17.322800
vt 0.393701 -0.152528
vt 0.393701 4.397540
vt 2.443270 17.389900
vt 0.393701 4.911430
vt 0.393701 9.144300
vt 1.968500 17.586599
vt 0.393701 9.658190
vt 0.393701 13.250400
vt 1.560810 17.899401
vt 0.393701 13.764300
vt 0.393701 16.436001
vt 1.247980 18.307100
vt 1.596190 18.508101
vt -0.393701 16.488400
vt -0.393701 13.711800
vt 1.845120 18.183701
vt -0.393701 9.605700
vt -0.393701 13.302900
vt 2.169540 17.934799
vt -0.393701 4.858940
vt -0.393701 9.196780
vt 2.547330 17.778299
vt -0.393701 -0.205010
vt -0.393701 4.450030
vt 2.952760 17.724899
vt 0.393701 5.241060
vt -0.393701 -0.613929
vt 3.358180 17.778299
vt 0.393701 9.906010
vt 0.393701 5.649980
vt 3.735970 17.934799
vt 0.393701 13.881900
vt 0.393701 10.314900
vt 4.060390 18.183701
vt 0.393701 16.897900
vt 0.393701 14.290900
vt 4.309320 18.508101
vt 0.393701 18.748400
vt 0.393701 17.306801
vt 4.465810 18.885900
vt 0.393701 19.307301
vt 0.393701 19.157301
vt 4.519180 19.291300
vt 0.393701 18.536400
vt 0.393701 19.716200
vt 4.465810 19.696800
vt 0.393701 16.488400
vt 0.393701 18.945299
vt 4.309320 20.074600
vt 0.393701 13.302900
vt 0.393701 16.897400
vt 4.060390 20.399000
vt 0.393701 9.196780
vt 0.393701 13.711800
vt 3.735970 20.647900
vt 0.393701 4.450030
vt 0.393701 9.605700
vt 3.358180 20.804399
vt 0.393701 -0.613929
vt 0.393701 4.858940
vt 2.952760 20.857800
vt -0.393701 5.649980
vt 0.393701 -0.205010
vt 2.547330 20.804399
vt -0.393701 10.314900
vt -0.393701 5.241060
vt 2.169540 20.647900
vt -0.393701 14.290900
vt -0.393701 9.906010
vt 1.845120 20.399000
vt -0.393701 17.306801
vt -0.393701 13.881900
vt 1.596190 20.074600
vt -0.393701 19.157301
vt -0.393701 16.897900
vt 1.439700 19.696800
vt -0.393701 18.748400
vt -0.393701 19.716200
vt 1.386330 19.291300
vt -0.393701 19.307301
vt -0.393701 18.945299
vt 1.439700 18.885900
vt -0.393701 16.897400
vt -0.393701 18.536400
vt 0.393701 16.488400
vt 1.596190 18.508101
vt 0.393701 13.711800
vt 0.393701 16.897400
vt 1.439700 18.885900
vt 0.393701 18.536400
vt 1.596190 20.074600
vt 0.393701 19.157301
vt 0.393701 16.897900
vt 1.439700 19.696800
vt 0.393701 18.748400
vt 0.393701 19.716200
vt 1.386330 19.291300
vt 0.393701 19.307301
vt 0.393701 18.945299
vt 1.845120 18.183701
vt 0.393701 9.605700
vt 0.393701 13.302900
vt 2.169540 17.934799
vt 0.393701 4.858940
vt 0.393701 9.196780
vt 2.547330 17.778299
vt 0.393701 -0.205010
vt 0.393701 4.450030
vt 2.952760 17.724899
vt -0.393701 5.241060
vt 0.393701 -0.613929
vt 3.358180 17.778299
vt -0.393701 9.906010
vt -0.393701 5.649980
vt 3.735970 17.934799
vt -0.393701 13.881900
vt -0.393701 10.314900
vt 4.060390 18.183701
vt -0.393701 16.897900
vt -0.393701 14.290900
vt 4.309320 18.508101
vt -0.393701 18.748400
vt -0.393701 17.306801
vt 4.465810 18.885900
vt -0.393701 19.307301
vt -0.393701 19.157301
vt 4.519180 19.291300
vt -0.393701 18.536400
vt -0.393701 19.716200
vt 4.465810 19.696800
vt -0.393701 16.488400
vt -0.393701 18.945299
vt 4.309320 20.074600
vt -0.393701 13.302900
vt -0.393701 16.897400
vt 4.060390 20.399000
vt -0.393701 9.196780
vt -0.393701 13.711800
vt 3.735970 20.647900
vt -0.393701 4.450030
vt -0.393701 9.605700
vt 3.358180 20.804399
vt -0.393701 -0.613929
vt -0.393701 4.858940
vt 2.952760 20.857800
vt 0.393701 5.649980
vt -0.393701 -0.205010
vt 2.547330 20.804399
vt 0.393701 10.314900
vt 0.393701 5.241060
vt 2.169540 20.647900
vt 0.393701 14.290900
vt 0.393701 9.906010
vt 1.845120 20.399000
vt 0.393701 17.306801
vt 0.393701 13.881900
vt 3.937010 27.559099
vt 27.559099 20.866100
vt -3.937010 20.866100
vt 27.559099 18.110201
vt -3.937010 32.293098
vt -3.937010 18.110201
vt -27.559099 18.110201
vt -1.968500 32.293098
vt -1.968500 18.110201
vt 1.968500 27.559099
vt -27.559099 20.866100
vt -1.968500 20.866100
vt 1.968500 28.740200
vt -28.740200 20.866100
vt -1.968500 20.866100
vt 3.937010 28.740200
vt -3.937010 20.866100
vt 28.740200 20.866100
vt -28.740200 19.291300
vt -1.968500 19.291300
vt -1.968500 33.963402
vt -3.937010 19.291300
vt 28.740200 19.291300
vt -3.937010 33.963402
vt -4.527560 12.560400
vt 12.560400 14.960600
vt 4.527560 14.960600
vt -1.377950 12.560400
vt 1.377950 14.960600
vt -12.560400 14.960600
vt -1.377950 13.741500
vt -13.741500 14.960600
vt -1.377950 14.960600
vt -4.527560 13.741500
vt 13.741500 14.960600
vt -4.527560 14.960600
vt 12.560400 10.236200
vt 4.527560 10.236200
vt -4.527560 12.560400
vt 18.959801 10.236200
vt 4.527560 5.074050
vt -4.527560 18.959801
vt 18.649000 11.417300
vt 4.527560 18.649000
vt 4.527560 6.295360
vt 13.741500 11.417300
vt -4.527560 11.417300
vt 4.527560 13.741500
vt 1.377950 10.236200
vt -12.560400 10.236200
vt -1.377950 12.560400
vt -13.741500 11.417300
vt -1.377950 11.417300
vt 1.377950 13.741500
vt -18.649000 11.417300
vt 1.377950 18.649000
vt 1.377950 6.295360
vt -18.959801 10.236200
vt 1.377950 5.074050
vt -1.377950 18.959801
s 0
usemtl Gray4
f 1/1/1 2/4/1 3/7/1 4/10/1
f 5/13/2 6/15/2 7/17/2 8/20/2 9/23/2 10/26/2 2/5/2 1/2/2
f 11/29/3 12/32/3 13/35/3 6/15/3 5/13/3 14/38/3 15/41/3 16/44/3
f 12/33/4 11/30/4 17/47/4 18/50/4 14/39/4 5/14/4 1/3/4 4/11/4
f 19/53/2 17/48/2 11/31/2 16/45/2 20/56/2 21/59/2
f 18/51/3 17/49/3 19/54/3 22/62/3
f 23/65/5 24/69/5 25/70/5 26/72/5 22/63/5 19/55/5 21/60/5 27/75/5
f 24/68/3 23/66/3 28/78/3 29/82/3
f 3/8/6 28/79/6 23/67/6 27/76/6 30/83/6 13/36/6 12/34/6 4/12/6
f 29/81/5 28/80/5 3/9/5 2/6/5 10/27/5
f 10/28/3 9/24/3 24/68/3 29/82/3
f 9/25/5 8/21/5 25/70/5 24/69/5
f 8/22/1 7/18/1 31/87/1 25/71/1
f 30/84/5 31/86/5 7/19/5 6/16/5 13/37/5
f 26/73/1 25/71/1 31/87/1 30/85/1 27/77/1 21/61/1 20/57/1 32/88/1
f 16/46/4 15/42/4 32/89/4 20/58/4
f 22/64/6 26/74/6 32/90/6 15/43/6 14/40/6 18/52/6
f 75/221/3 74/219/3 51/150/7 76/224/7
f 77/227/8 73/216/8 74/220/3 75/222/3
f 78/230/9 72/213/9 73/217/8 77/228/8
f 79/233/10 71/210/10 72/214/9 78/231/9
f 80/236/11 70/207/11 71/211/10 79/234/10
f 81/239/12 69/204/12 70/208/11 80/237/11
f 82/242/4 68/200/4 69/205/12 81/240/12
f 83/245/13 84/248/13 68/201/4 82/243/4
f 85/251/14 86/254/14 84/249/13 83/246/13
f 87/257/15 88/260/15 86/255/14 85/252/14
f 89/263/16 90/266/16 88/261/15 87/258/15
f 91/269/17 92/272/17 90/267/16 89/264/16
f 93/275/1 94/278/1 92/273/17 91/270/17
f 95/281/18 62/182/18 94/279/1 93/276/1
f 96/284/19 61/180/19 62/183/18 95/282/18
f 97/287/20 60/177/20 61/181/19 96/285/19
f 98/290/21 58/171/21 60/178/20 97/288/20
f 99/293/22 57/168/22 58/172/21 98/291/21
f 100/296/5 56/165/5 57/169/22 99/294/22
f 101/299/23 55/162/23 56/166/5 100/297/5
f 102/302/24 54/159/24 55/163/23 101/300/23
f 103/305/25 53/156/25 54/160/24 102/303/24
f 104/308/26 52/153/26 53/157/25 103/306/25
f 76/225/7 51/151/7 52/154/26 104/309/26
f 104/310/2 105/311/2 76/226/2
f 104/310/2 106/314/2 105/311/2
f 104/310/2 107/317/2 106/314/2
f 103/307/2 107/317/2 104/310/2
f 103/307/2 108/320/2 107/317/2
f 103/307/2 109/323/2 108/320/2
f 103/307/2 98/292/2 109/323/2
f 102/304/2 98/292/2 103/307/2
f 101/301/2 98/292/2 102/304/2
f 101/301/2 99/295/2 98/292/2
f 99/295/2 101/301/2 100/298/2
f 97/289/2 109/323/2 98/292/2
f 109/323/2 97/289/2 110/326/2
f 110/326/2 97/289/2 111/329/2
f 111/329/2 97/289/2 96/286/2
f 111/329/2 96/286/2 112/332/2
f 112/332/2 96/286/2 113/335/2
f 113/335/2 96/286/2 95/283/2
f 113/335/2 95/283/2 114/338/2
f 114/338/2 95/283/2 93/277/2
f 114/338/2 93/277/2 115/341/2
f 115/341/2 93/277/2 91/271/2
f 115/341/2 91/271/2 116/344/2
f 116/344/2 91/271/2 117/347/2
f 117/347/2 91/271/2 89/265/2
f 117/347/2 89/265/2 118/350/2
f 118/350/2 89/265/2 87/259/2
f 118/350/2 87/259/2 119/353/2
f 119/353/2 87/259/2 120/356/2
f 120/356/2 87/259/2 85/253/2
f 120/356/2 85/253/2 121/359/2
f 121/359/2 85/253/2 80/238/2
f 80/238/2 85/253/2 81/241/2
f 81/241/2 85/253/2 83/247/2
f 81/241/2 83/247/2 82/244/2
f 80/238/2 122/362/2 121/359/2
f 79/235/2 122/362/2 80/238/2
f 79/235/2 123/365/2 122/362/2
f 79/235/2 124/368/2 123/365/2
f 78/232/2 124/368/2 79/235/2
f 78/232/2 125/371/2 124/368/2
f 77/229/2 125/371/2 78/232/2
f 77/229/2 126/374/2 125/371/2
f 75/223/2 126/374/2 77/229/2
f 75/223/2 127/377/2 126/374/2
f 75/223/2 128/380/2 127/377/2
f 76/226/2 128/380/2 75/223/2
f 76/226/2 105/311/2 128/380/2
f 129/383/16 130/386/17 128/381/17 105/312/16
f 132/393/18 131/390/19 125/372/19 126/375/18
f 131/391/19 152/453/20 124/369/20 125/373/19
f 152/454/20 151/450/21 123/366/21 124/370/20
f 151/451/21 150/447/22 122/363/22 123/367/21
f 150/448/22 149/444/5 121/360/5 122/364/22
f 149/445/5 148/441/23 120/357/23 121/361/5
f 148/442/23 147/438/24 119/354/24 120/358/23
f 147/439/24 146/435/25 118/351/25 119/355/24
f 146/436/25 145/432/26 117/348/26 118/352/25
f 145/433/26 144/429/7 116/345/7 117/349/26
f 144/430/7 143/426/3 115/342/3 116/346/7
f 143/427/3 142/423/8 114/339/8 115/343/3
f 142/424/8 141/420/9 113/336/9 114/340/8
f 141/421/9 140/417/10 112/333/10 113/337/9
f 140/418/10 139/414/11 111/330/11 112/334/10
f 139/415/11 138/411/12 110/327/12 111/331/11
f 138/412/12 137/408/4 109/324/4 110/328/12
f 137/409/4 136/405/13 108/321/13 109/325/4
f 136/406/13 135/402/14 107/318/14 108/322/13
f 135/403/14 134/399/15 106/315/15 107/319/14
f 134/400/15 129/385/16 105/313/16 106/316/15
f 133/396/1 132/394/18 126/376/18 127/378/1
f 130/388/17 133/397/1 127/379/1 128/382/17
f 157/467/4 156/464/4 153/455/4 158/470/4
f 156/465/3 157/468/3 159/473/3 155/461/3
f 159/474/6 157/469/6 158/471/6 160/476/6
f 154/458/1 160/477/1 158/472/1 153/456/1
f 155/462/27 159/475/27 160/478/27 154/459/27
f 66/195/5 49/144/5 48/142/5 67/199/5
f 164/489/1 161/480/1 165/491/1 166/494/1 167/497/1 168/500/1
f 161/481/2 162/483/2 169/503/2 165/492/2
f 162/484/3 163/486/3 170/506/3 171/509/3 172/512/3 169/504/3
f 164/490/6 168/501/6 170/507/6 163/487/6
f 170/508/4 168/502/4 167/498/4 171/510/4
f 169/505/5 172/514/5 166/496/5 165/493/5
usemtl Gray6
f 33/91/5 34/95/5 35/99/5 36/103/5
f 37/109/4 33/92/4 34/98/4
f 38/110/4 33/92/4 37/109/4
f 33/92/4 38/110/4 39/114/4
f 39/113/3 38/111/3 40/116/3 41/119/3
f 38/112/6 37/107/6 42/122/6 40/117/6
f 37/108/1 43/125/1 44/128/1 42/123/1
f 35/102/4 43/126/4 37/109/4
f 36/104/4 43/126/4 35/102/4
f 36/104/4 39/114/4 43/126/4
f 39/114/4 36/104/4 33/92/4
f 45/131/3 46/134/3 47/137/3 48/140/3 49/143/3 33/93/3 36/105/3 50/146/3
f 45/132/2 51/149/2 46/136/2
f 51/149/2 45/132/2 52/152/2
f 52/152/2 45/132/2 53/155/2
f 53/155/2 45/132/2 54/158/2
f 54/158/2 45/132/2 55/161/2
f 55/161/2 45/132/2 56/164/2
f 45/132/2 57/167/2 56/164/2
f 45/132/2 58/170/2 57/167/2
f 59/173/2 58/170/2 45/132/2
f 58/170/2 59/173/2 60/176/2
f 60/176/2 59/173/2 61/179/2
f 61/179/2 59/173/2 62/184/2
f 62/184/2 59/173/2 63/187/2
f 64/188/1 63/185/1 59/174/1 65/191/1 35/100/1 34/96/1 66/194/1 67/197/1
f 47/138/4 46/135/4 63/186/4 64/189/4
f 46/136/2 68/202/2 63/187/2
f 46/136/2 69/203/2 68/202/2
f 46/136/2 70/206/2 69/203/2
f 46/136/2 71/209/2 70/206/2
f 46/136/2 72/212/2 71/209/2
f 46/136/2 73/215/2 72/212/2
f 46/136/2 74/218/2 73/215/2
f 46/136/2 51/149/2 74/218/2
f 62/184/2 63/187/2 94/280/2
f 94/280/2 63/187/2 92/274/2
f 92/274/2 63/187/2 90/268/2
f 90/268/2 63/187/2 88/262/2
f 88/262/2 63/187/2 86/256/2
f 86/256/2 63/187/2 84/250/2
f 84/250/2 63/187/2 68/202/2
f 64/190/6 153/457/6 47/139/6
f 64/190/6 154/460/6 153/457/6
f 67/198/6 154/460/6 64/190/6
f 154/460/6 67/198/6 155/463/6
f 48/141/6 155/463/6 67/198/6
f 155/463/6 48/141/6 47/139/6
f 155/463/6 47/139/6 156/466/6
f 156/466/6 47/139/6 153/457/6
f 155/463/6 156/466/6 153/457/6 154/460/6
f 34/97/28 33/94/28 49/145/28 66/196/28
f 59/175/5 161/479/5 65/192/5
f 59/175/5 162/482/5 161/479/5
f 45/133/5 162/482/5 59/175/5
f 162/482/5 45/133/5 50/147/5
f 162/482/5 50/147/5 163/485/5
f 65/192/5 163/485/5 50/147/5
f 163/485/5 65/192/5 164/488/5
f 164/488/5 65/192/5 161/479/5
f 171/511/29 172/513/29 166/495/29 167/499/29
f 50/148/29 172/513/29 171/511/29
f 36/106/29 172/513/29 50/148/29
f 172/513/29 36/106/29 166/495/29
f 35/101/29 166/495/29 36/106/29
f 166/495/29 35/101/29 65/193/29
f 166/495/29 65/193/29 167/499/29
f 167/499/29 65/193/29 171/511/29
f 50/148/29 171/511/29 65/193/29
f 37/109/4 34/98/4 35/102/4
f 43/127/2 39/115/2 41/120/2 44/129/2
f 44/130/5 41/121/5 40/118/5 42/124/5
usemtl Gray8
f 131/389/2 132/392/2 133/395/2 130/387/2 129/384/2 134/398/2 135/401/2 136/404/2 137/407/2 138/410/2 139/413/2 140/416/2 141/419/2 142/422/2 143/425/2 144/428/2 145/431/2 146/434/2 147/437/2 148/440/2 149/443/2 150/446/2 151/449/2 152/452/2
